<mxfile host="app.diagrams.net" modified="2023-10-07T15:11:25.144Z" agent="Mozilla/5.0 (Windows NT 10.0; Win64; x64) AppleWebKit/537.36 (KHTML, like Gecko) Chrome/117.0.0.0 Safari/537.36" etag="INibzGJbZ4AWlucz2dhG" version="22.0.4" type="device">
  <diagram name="Page-1" id="edf60f1a-56cd-e834-aa8a-f176f3a09ee4">
    <mxGraphModel dx="1440" dy="-30" grid="1" gridSize="10" guides="1" tooltips="1" connect="1" arrows="1" fold="1" page="1" pageScale="1" pageWidth="1100" pageHeight="850" background="none" math="0" shadow="0">
      <root>
        <mxCell id="0" />
        <mxCell id="1" parent="0" />
        <mxCell id="60e70716793133e9-30" value="&lt;font style=&quot;font-size: 18px;&quot;&gt;End&lt;/font&gt;" style="strokeWidth=1;html=1;shape=mxgraph.flowchart.terminator;whiteSpace=wrap;rounded=0;shadow=1;labelBackgroundColor=none;fontFamily=Verdana;fontSize=8;align=center;" parent="1" vertex="1">
          <mxGeometry x="30" y="1602.5" width="90" height="40" as="geometry" />
        </mxCell>
        <mxCell id="ccKMMwgvb3JzmEin2II3-2" value="&lt;font style=&quot;font-size: 17px;&quot;&gt;Start&lt;/font&gt;" style="strokeWidth=1;html=1;shape=mxgraph.flowchart.terminator;whiteSpace=wrap;rounded=0;shadow=1;labelBackgroundColor=none;fontFamily=Verdana;fontSize=8;align=center;" vertex="1" parent="1">
          <mxGeometry x="50" y="880" width="90" height="50" as="geometry" />
        </mxCell>
        <mxCell id="ccKMMwgvb3JzmEin2II3-3" value="&lt;font style=&quot;font-size: 16px;&quot;&gt;OpenPay- Create TimeSheets&lt;/font&gt;" style="strokeWidth=2;html=1;shape=mxgraph.flowchart.terminator;whiteSpace=wrap;" vertex="1" parent="1">
          <mxGeometry x="25" y="985" width="140" height="80" as="geometry" />
        </mxCell>
        <mxCell id="ccKMMwgvb3JzmEin2II3-4" value="&lt;font style=&quot;font-size: 17px;&quot;&gt;Enter Corrections from HR&lt;/font&gt;" style="rounded=0;whiteSpace=wrap;html=1;" vertex="1" parent="1">
          <mxGeometry x="280" y="990" width="140" height="70" as="geometry" />
        </mxCell>
        <mxCell id="ccKMMwgvb3JzmEin2II3-5" value="&lt;font style=&quot;font-size: 16px;&quot;&gt;All Employees reported?&lt;/font&gt;" style="rhombus;whiteSpace=wrap;html=1;" vertex="1" parent="1">
          <mxGeometry x="850" y="960" width="140" height="135" as="geometry" />
        </mxCell>
        <mxCell id="ccKMMwgvb3JzmEin2II3-6" value="&lt;font style=&quot;font-size: 18px;&quot;&gt;Start Review Process&lt;/font&gt;" style="rounded=0;whiteSpace=wrap;html=1;" vertex="1" parent="1">
          <mxGeometry x="1260" y="992.5" width="120" height="70" as="geometry" />
        </mxCell>
        <mxCell id="ccKMMwgvb3JzmEin2II3-7" value="&lt;font style=&quot;font-size: 16px;&quot;&gt;Processing &lt;br&gt;Information &lt;br&gt;Correct?&amp;nbsp;&lt;/font&gt;" style="rhombus;whiteSpace=wrap;html=1;" vertex="1" parent="1">
          <mxGeometry x="1000" y="1155" width="140" height="125" as="geometry" />
        </mxCell>
        <mxCell id="ccKMMwgvb3JzmEin2II3-8" value="&lt;font style=&quot;font-size: 17px;&quot;&gt;HR to correct errors and return to review process&lt;/font&gt;" style="rounded=0;whiteSpace=wrap;html=1;" vertex="1" parent="1">
          <mxGeometry x="1270" y="1180" width="140" height="80" as="geometry" />
        </mxCell>
        <mxCell id="ccKMMwgvb3JzmEin2II3-9" value="&lt;font style=&quot;font-size: 18px;&quot;&gt;Finalize for Batch Processing&lt;/font&gt;" style="rounded=0;whiteSpace=wrap;html=1;" vertex="1" parent="1">
          <mxGeometry x="700" y="1370" width="130" height="75" as="geometry" />
        </mxCell>
        <mxCell id="ccKMMwgvb3JzmEin2II3-10" value="&lt;font style=&quot;font-size: 18px;&quot;&gt;Send Data to Payroll Processor&lt;/font&gt;" style="rounded=0;whiteSpace=wrap;html=1;" vertex="1" parent="1">
          <mxGeometry x="970" y="1375" width="130" height="75" as="geometry" />
        </mxCell>
        <mxCell id="ccKMMwgvb3JzmEin2II3-11" value="&lt;font style=&quot;font-size: 17px;&quot;&gt;Data &lt;br&gt;Accepted&lt;/font&gt;" style="rhombus;whiteSpace=wrap;html=1;" vertex="1" parent="1">
          <mxGeometry x="1270" y="1350" width="130" height="120" as="geometry" />
        </mxCell>
        <mxCell id="ccKMMwgvb3JzmEin2II3-12" value="&lt;span style=&quot;font-size: 15px;&quot;&gt;Produce error report and deposit report&lt;/span&gt;" style="rounded=0;whiteSpace=wrap;html=1;" vertex="1" parent="1">
          <mxGeometry x="1275" y="1585" width="120" height="70" as="geometry" />
        </mxCell>
        <mxCell id="ccKMMwgvb3JzmEin2II3-13" value="&lt;font style=&quot;font-size: 18px;&quot;&gt;Validate Error report&lt;/font&gt;" style="rounded=0;whiteSpace=wrap;html=1;" vertex="1" parent="1">
          <mxGeometry x="970" y="1587.5" width="130" height="70" as="geometry" />
        </mxCell>
        <mxCell id="ccKMMwgvb3JzmEin2II3-14" value="&lt;font style=&quot;font-size: 18px;&quot;&gt;Send Data to Payroll Processor&lt;/font&gt;" style="rounded=0;whiteSpace=wrap;html=1;" vertex="1" parent="1">
          <mxGeometry x="600" y="1585" width="150" height="75" as="geometry" />
        </mxCell>
        <mxCell id="ccKMMwgvb3JzmEin2II3-15" value="&lt;span style=&quot;font-size: 15px;&quot;&gt;Produce Payment and re-open new pay period&lt;/span&gt;" style="strokeWidth=2;html=1;shape=mxgraph.flowchart.terminator;whiteSpace=wrap;" vertex="1" parent="1">
          <mxGeometry x="240" y="1575" width="150" height="95" as="geometry" />
        </mxCell>
        <mxCell id="ccKMMwgvb3JzmEin2II3-16" value="&lt;font style=&quot;font-size: 17px;&quot;&gt;Prepare close time reporting&lt;/font&gt;" style="rounded=0;whiteSpace=wrap;html=1;" vertex="1" parent="1">
          <mxGeometry x="550" y="995" width="120" height="65" as="geometry" />
        </mxCell>
        <mxCell id="ccKMMwgvb3JzmEin2II3-17" value="&lt;font style=&quot;font-size: 17px;&quot;&gt;Provide HR with List to validate and approve&lt;/font&gt;" style="rounded=0;whiteSpace=wrap;html=1;" vertex="1" parent="1">
          <mxGeometry x="560" y="1170" width="150" height="80" as="geometry" />
        </mxCell>
        <mxCell id="ccKMMwgvb3JzmEin2II3-18" value="" style="endArrow=classic;html=1;rounded=0;entryX=0.5;entryY=0;entryDx=0;entryDy=0;entryPerimeter=0;exitX=0.5;exitY=1;exitDx=0;exitDy=0;exitPerimeter=0;" edge="1" parent="1" source="ccKMMwgvb3JzmEin2II3-2" target="ccKMMwgvb3JzmEin2II3-3">
          <mxGeometry width="50" height="50" relative="1" as="geometry">
            <mxPoint x="130" y="960" as="sourcePoint" />
            <mxPoint x="180" y="910" as="targetPoint" />
          </mxGeometry>
        </mxCell>
        <mxCell id="ccKMMwgvb3JzmEin2II3-19" value="" style="endArrow=classic;html=1;rounded=0;entryX=0;entryY=0.5;entryDx=0;entryDy=0;exitX=1;exitY=0.5;exitDx=0;exitDy=0;exitPerimeter=0;" edge="1" parent="1" source="ccKMMwgvb3JzmEin2II3-3" target="ccKMMwgvb3JzmEin2II3-4">
          <mxGeometry width="50" height="50" relative="1" as="geometry">
            <mxPoint x="200" y="1025" as="sourcePoint" />
            <mxPoint x="215" y="980" as="targetPoint" />
          </mxGeometry>
        </mxCell>
        <mxCell id="ccKMMwgvb3JzmEin2II3-20" value="" style="endArrow=classic;html=1;rounded=0;entryX=0;entryY=0.5;entryDx=0;entryDy=0;" edge="1" parent="1" target="ccKMMwgvb3JzmEin2II3-16">
          <mxGeometry width="50" height="50" relative="1" as="geometry">
            <mxPoint x="420" y="1030" as="sourcePoint" />
            <mxPoint x="470" y="980" as="targetPoint" />
          </mxGeometry>
        </mxCell>
        <mxCell id="ccKMMwgvb3JzmEin2II3-21" value="" style="endArrow=classic;html=1;rounded=0;entryX=0;entryY=0.5;entryDx=0;entryDy=0;" edge="1" parent="1" target="ccKMMwgvb3JzmEin2II3-5">
          <mxGeometry width="50" height="50" relative="1" as="geometry">
            <mxPoint x="670" y="1030" as="sourcePoint" />
            <mxPoint x="720" y="980" as="targetPoint" />
          </mxGeometry>
        </mxCell>
        <mxCell id="ccKMMwgvb3JzmEin2II3-22" value="" style="endArrow=classic;html=1;rounded=0;entryX=0;entryY=0.5;entryDx=0;entryDy=0;" edge="1" parent="1">
          <mxGeometry width="50" height="50" relative="1" as="geometry">
            <mxPoint x="990" y="1028.75" as="sourcePoint" />
            <mxPoint x="1260" y="1026.25" as="targetPoint" />
          </mxGeometry>
        </mxCell>
        <mxCell id="ccKMMwgvb3JzmEin2II3-24" value="" style="endArrow=classic;html=1;rounded=0;entryX=0.5;entryY=0;entryDx=0;entryDy=0;exitX=0.5;exitY=1;exitDx=0;exitDy=0;" edge="1" parent="1" source="ccKMMwgvb3JzmEin2II3-6" target="ccKMMwgvb3JzmEin2II3-7">
          <mxGeometry width="50" height="50" relative="1" as="geometry">
            <mxPoint x="700" y="1310" as="sourcePoint" />
            <mxPoint x="750" y="1260" as="targetPoint" />
            <Array as="points">
              <mxPoint x="1320" y="1100" />
              <mxPoint x="1070" y="1100" />
            </Array>
          </mxGeometry>
        </mxCell>
        <mxCell id="ccKMMwgvb3JzmEin2II3-26" value="" style="endArrow=classic;html=1;rounded=0;exitX=0.5;exitY=1;exitDx=0;exitDy=0;" edge="1" parent="1" source="ccKMMwgvb3JzmEin2II3-7">
          <mxGeometry width="50" height="50" relative="1" as="geometry">
            <mxPoint x="700" y="1310" as="sourcePoint" />
            <mxPoint x="760" y="1370" as="targetPoint" />
            <Array as="points">
              <mxPoint x="920" y="1280" />
              <mxPoint x="760" y="1280" />
            </Array>
          </mxGeometry>
        </mxCell>
        <mxCell id="ccKMMwgvb3JzmEin2II3-27" value="" style="endArrow=classic;html=1;rounded=0;exitX=1;exitY=0.5;exitDx=0;exitDy=0;" edge="1" parent="1" source="ccKMMwgvb3JzmEin2II3-9">
          <mxGeometry width="50" height="50" relative="1" as="geometry">
            <mxPoint x="700" y="1310" as="sourcePoint" />
            <mxPoint x="970" y="1408" as="targetPoint" />
          </mxGeometry>
        </mxCell>
        <mxCell id="ccKMMwgvb3JzmEin2II3-28" value="" style="endArrow=classic;html=1;rounded=0;entryX=0;entryY=0.5;entryDx=0;entryDy=0;exitX=1;exitY=0.5;exitDx=0;exitDy=0;" edge="1" parent="1" source="ccKMMwgvb3JzmEin2II3-10" target="ccKMMwgvb3JzmEin2II3-11">
          <mxGeometry width="50" height="50" relative="1" as="geometry">
            <mxPoint x="700" y="1310" as="sourcePoint" />
            <mxPoint x="750" y="1260" as="targetPoint" />
          </mxGeometry>
        </mxCell>
        <mxCell id="ccKMMwgvb3JzmEin2II3-29" value="" style="endArrow=classic;html=1;rounded=0;entryX=0.5;entryY=0;entryDx=0;entryDy=0;exitX=0.5;exitY=1;exitDx=0;exitDy=0;" edge="1" parent="1" source="ccKMMwgvb3JzmEin2II3-11" target="ccKMMwgvb3JzmEin2II3-12">
          <mxGeometry width="50" height="50" relative="1" as="geometry">
            <mxPoint x="700" y="1310" as="sourcePoint" />
            <mxPoint x="750" y="1260" as="targetPoint" />
          </mxGeometry>
        </mxCell>
        <mxCell id="ccKMMwgvb3JzmEin2II3-30" value="" style="endArrow=classic;html=1;rounded=0;entryX=1;entryY=0.5;entryDx=0;entryDy=0;exitX=0;exitY=0.5;exitDx=0;exitDy=0;" edge="1" parent="1" source="ccKMMwgvb3JzmEin2II3-12" target="ccKMMwgvb3JzmEin2II3-13">
          <mxGeometry width="50" height="50" relative="1" as="geometry">
            <mxPoint x="700" y="1310" as="sourcePoint" />
            <mxPoint x="750" y="1260" as="targetPoint" />
          </mxGeometry>
        </mxCell>
        <mxCell id="ccKMMwgvb3JzmEin2II3-31" value="" style="endArrow=classic;html=1;rounded=0;entryX=1;entryY=0.5;entryDx=0;entryDy=0;exitX=0;exitY=0.5;exitDx=0;exitDy=0;" edge="1" parent="1" source="ccKMMwgvb3JzmEin2II3-13" target="ccKMMwgvb3JzmEin2II3-14">
          <mxGeometry width="50" height="50" relative="1" as="geometry">
            <mxPoint x="700" y="1310" as="sourcePoint" />
            <mxPoint x="750" y="1260" as="targetPoint" />
          </mxGeometry>
        </mxCell>
        <mxCell id="ccKMMwgvb3JzmEin2II3-32" value="" style="endArrow=classic;html=1;rounded=0;entryX=1;entryY=0.5;entryDx=0;entryDy=0;entryPerimeter=0;exitX=0;exitY=0.5;exitDx=0;exitDy=0;" edge="1" parent="1" source="ccKMMwgvb3JzmEin2II3-14" target="ccKMMwgvb3JzmEin2II3-15">
          <mxGeometry width="50" height="50" relative="1" as="geometry">
            <mxPoint x="700" y="1310" as="sourcePoint" />
            <mxPoint x="750" y="1260" as="targetPoint" />
          </mxGeometry>
        </mxCell>
        <mxCell id="ccKMMwgvb3JzmEin2II3-35" value="" style="endArrow=classic;html=1;rounded=0;entryX=1;entryY=0.5;entryDx=0;entryDy=0;entryPerimeter=0;exitX=0;exitY=0.5;exitDx=0;exitDy=0;exitPerimeter=0;" edge="1" parent="1" source="ccKMMwgvb3JzmEin2II3-15" target="60e70716793133e9-30">
          <mxGeometry width="50" height="50" relative="1" as="geometry">
            <mxPoint x="130" y="1600" as="sourcePoint" />
            <mxPoint x="180" y="1550" as="targetPoint" />
          </mxGeometry>
        </mxCell>
        <mxCell id="ccKMMwgvb3JzmEin2II3-36" value="&lt;font style=&quot;font-size: 17px;&quot;&gt;No&lt;/font&gt;" style="text;html=1;align=center;verticalAlign=middle;resizable=0;points=[];autosize=1;strokeColor=none;fillColor=none;" vertex="1" parent="1">
          <mxGeometry x="775" y="1180" width="50" height="30" as="geometry" />
        </mxCell>
        <mxCell id="ccKMMwgvb3JzmEin2II3-37" value="&lt;font style=&quot;font-size: 18px;&quot;&gt;Yes&lt;/font&gt;" style="text;html=1;align=center;verticalAlign=middle;resizable=0;points=[];autosize=1;strokeColor=none;fillColor=none;" vertex="1" parent="1">
          <mxGeometry x="1075" y="983" width="50" height="40" as="geometry" />
        </mxCell>
        <mxCell id="ccKMMwgvb3JzmEin2II3-38" value="&lt;font style=&quot;font-size: 18px;&quot;&gt;Yes&lt;/font&gt;" style="text;html=1;align=center;verticalAlign=middle;resizable=0;points=[];autosize=1;strokeColor=none;fillColor=none;" vertex="1" parent="1">
          <mxGeometry x="875" y="1245" width="50" height="40" as="geometry" />
        </mxCell>
        <mxCell id="ccKMMwgvb3JzmEin2II3-39" value="" style="endArrow=classic;startArrow=classic;html=1;rounded=0;entryX=0.5;entryY=1;entryDx=0;entryDy=0;exitX=1;exitY=0.5;exitDx=0;exitDy=0;" edge="1" parent="1" source="ccKMMwgvb3JzmEin2II3-17" target="ccKMMwgvb3JzmEin2II3-5">
          <mxGeometry width="50" height="50" relative="1" as="geometry">
            <mxPoint x="700" y="1290" as="sourcePoint" />
            <mxPoint x="750" y="1240" as="targetPoint" />
            <Array as="points">
              <mxPoint x="920" y="1210" />
            </Array>
          </mxGeometry>
        </mxCell>
        <mxCell id="ccKMMwgvb3JzmEin2II3-41" value="" style="endArrow=classic;startArrow=classic;html=1;rounded=0;entryX=0;entryY=0.5;entryDx=0;entryDy=0;exitX=1;exitY=0.5;exitDx=0;exitDy=0;" edge="1" parent="1" source="ccKMMwgvb3JzmEin2II3-7" target="ccKMMwgvb3JzmEin2II3-8">
          <mxGeometry width="50" height="50" relative="1" as="geometry">
            <mxPoint x="700" y="1290" as="sourcePoint" />
            <mxPoint x="750" y="1240" as="targetPoint" />
          </mxGeometry>
        </mxCell>
        <mxCell id="ccKMMwgvb3JzmEin2II3-42" value="&lt;font style=&quot;font-size: 18px;&quot;&gt;No&lt;/font&gt;" style="text;html=1;align=center;verticalAlign=middle;resizable=0;points=[];autosize=1;strokeColor=none;fillColor=none;" vertex="1" parent="1">
          <mxGeometry x="1175" y="1183" width="50" height="40" as="geometry" />
        </mxCell>
      </root>
    </mxGraphModel>
  </diagram>
</mxfile>
